<svg xmlns="http://www.w3.org/2000/svg" xmlns:svg="http://www.w3.org/2000/svg" id="svg5594" width="64" height="64" version="1.1"><metadata id="metadata5599"/><g id="g352" transform="matrix(1.300035,0,0,0.79231283,-9.6011218,6.6459878)"><path id="rect342-5-6-2-9-1-2-7" d="M 33.55019,31.121519 38.391181,30.394246 V 33.605751 L 33.55019,32.87848 Z" style="font-variation-settings:'wght' 800;fill:#fff;fill-opacity:1;stroke-width:1.045;stroke-linejoin:bevel"/><path id="rect342" d="M 33.823542,31.4403 38.11783,30.795159 V 33.204838 L 33.823542,32.559699 Z" style="font-variation-settings:'wght' 800;fill:#262626;stroke-width:.92699;stroke-linejoin:bevel"/></g><g id="g352-3" transform="matrix(-1.300035,0,0,-0.79231283,73.601124,57.354008)"><path id="rect342-5-6-2-9-1-2-7-6" d="M 33.55019,31.121519 38.391181,30.394246 V 33.605751 L 33.55019,32.87848 Z" style="font-variation-settings:'wght' 800;fill:#fff;fill-opacity:1;stroke-width:1.045;stroke-linejoin:bevel"/><path id="rect342-7" d="M 33.823542,31.4403 38.11783,30.795159 V 33.204838 L 33.823542,32.559699 Z" style="font-variation-settings:'wght' 800;fill:#262626;stroke-width:.92699;stroke-linejoin:bevel"/></g><g id="g352-3-5" transform="matrix(0,1.300035,-0.79231283,0,57.354011,-9.6011259)"><path id="rect342-5-6-2-9-1-2-7-6-3" d="M 33.55019,31.121519 38.391181,30.394246 V 33.605751 L 33.55019,32.87848 Z" style="font-variation-settings:'wght' 800;fill:#fff;fill-opacity:1;stroke-width:1.045;stroke-linejoin:bevel"/><path id="rect342-7-5" d="M 33.823542,31.4403 38.11783,30.795159 V 33.204838 L 33.823542,32.559699 Z" style="font-variation-settings:'wght' 800;fill:#262626;stroke-width:.92699;stroke-linejoin:bevel"/></g><g id="g352-3-5-6" transform="matrix(0,-1.300035,0.79231283,0,6.6459908,73.601122)"><path id="rect342-5-6-2-9-1-2-7-6-3-2" d="M 33.55019,31.121519 38.391181,30.394246 V 33.605751 L 33.55019,32.87848 Z" style="font-variation-settings:'wght' 800;fill:#fff;fill-opacity:1;stroke-width:1.045;stroke-linejoin:bevel"/><path id="rect342-7-5-9" d="M 33.823542,31.4403 38.11783,30.795159 V 33.204838 L 33.823542,32.559699 Z" style="font-variation-settings:'wght' 800;fill:#262626;stroke-width:.92699;stroke-linejoin:bevel"/></g></svg>