<svg xmlns="http://www.w3.org/2000/svg" xmlns:svg="http://www.w3.org/2000/svg" id="svg4" width="16" height="16" version="1.1" viewBox="0 0 16 16" xml:space="preserve"><path id="path2" fill="#2e3436" d="M 3,1 C 1.355469,1 0,2.355469 0,4 v 8 c 0,1.644531 1.355469,3 3,3 H 6 C 6.550781,15 7,14.550781 7,14 7,13.449219 6.550781,13 6,13 H 3 C 2.4375,13 2,12.5625 2,12 V 5 h 11 c 0.5625,0 1,0.4375 1,1 v 1 c 0,0.550781 0.449219,1 1,1 0.550781,0 1,-0.449219 1,-1 V 6 C 16,4.355469 14.644531,3 13,3 H 9.414062 L 7.707031,1.292969 C 7.519531,1.105469 7.265625,1 7,1 Z m 0,2 h 3.585938 l 1,1 H 2 C 2,3.4375 2.4375,3 3,3 Z"/><path id="path338" fill="#2e3436" d="m 11.440677,8.0000003 c -0.884375,0 -1.5999994,0.7156248 -1.5999994,1.6 0,0.8843747 0.7156244,1.5999997 1.5999994,1.5999997 0.88125,0 1.6,-0.715625 1.6,-1.5999997 0,-0.8843752 -0.71875,-1.6 -1.6,-1.6 z m 0,4.7999997 c -0.884375,0 -1.5999994,0.715625 -1.5999994,1.6 0,0.884375 0.7156244,1.6 1.5999994,1.6 0.88125,0 1.6,-0.715625 1.6,-1.6 0,-0.884375 -0.71875,-1.6 -1.6,-1.6 z" style="stroke-width:1"/></svg>