<svg xmlns="http://www.w3.org/2000/svg" xmlns:svg="http://www.w3.org/2000/svg" id="svg163" width="16" height="16" version="1.1" viewBox="0 0 16 16"><filter id="a" width="1" height="1" x="0" y="0"><feColorMatrix id="feColorMatrix2" in="SourceGraphic" type="matrix" values="0 0 0 0 1 0 0 0 0 1 0 0 0 0 1 0 0 0 1 0"/></filter><mask id="b"><g id="g7" filter="url(#a)"><path id="path5" fill-opacity=".3" d="m 0 0 h 16 v 16 h -16 z"/></g></mask><clipPath id="c"><path id="path10" d="m 0 0 h 1024 v 800 h -1024 z"/></clipPath><mask id="d"><g id="g15" filter="url(#a)"><path id="path13" fill-opacity=".05" d="m 0 0 h 16 v 16 h -16 z"/></g></mask><clipPath id="e"><path id="path18" d="m 0 0 h 1024 v 800 h -1024 z"/></clipPath><mask id="f"><g id="g23" filter="url(#a)"><path id="path21" fill-opacity=".05" d="m 0 0 h 16 v 16 h -16 z"/></g></mask><clipPath id="g"><path id="path26" d="m 0 0 h 1024 v 800 h -1024 z"/></clipPath><mask id="h"><g id="g31" filter="url(#a)"><path id="path29" fill-opacity=".05" d="m 0 0 h 16 v 16 h -16 z"/></g></mask><clipPath id="i"><path id="path34" d="m 0 0 h 1024 v 800 h -1024 z"/></clipPath><mask id="j"><g id="g39" filter="url(#a)"><path id="path37" fill-opacity=".05" d="m 0 0 h 16 v 16 h -16 z"/></g></mask><clipPath id="k"><path id="path42" d="m 0 0 h 1024 v 800 h -1024 z"/></clipPath><mask id="l"><g id="g47" filter="url(#a)"><path id="path45" fill-opacity=".05" d="m 0 0 h 16 v 16 h -16 z"/></g></mask><clipPath id="m"><path id="path50" d="m 0 0 h 1024 v 800 h -1024 z"/></clipPath><mask id="n"><g id="g55" filter="url(#a)"><path id="path53" fill-opacity=".05" d="m 0 0 h 16 v 16 h -16 z"/></g></mask><clipPath id="o"><path id="path58" d="m 0 0 h 1024 v 800 h -1024 z"/></clipPath><mask id="p"><g id="g63" filter="url(#a)"><path id="path61" fill-opacity=".3" d="m 0 0 h 16 v 16 h -16 z"/></g></mask><clipPath id="q"><path id="path66" d="m 0 0 h 1024 v 800 h -1024 z"/></clipPath><mask id="r"><g id="g71" filter="url(#a)"><path id="path69" fill-opacity=".5" d="m 0 0 h 16 v 16 h -16 z"/></g></mask><clipPath id="s"><path id="path74" d="m 0 0 h 1024 v 800 h -1024 z"/></clipPath><mask id="t"><g id="g79" filter="url(#a)"><path id="path77" fill-opacity=".4" d="m 0 0 h 16 v 16 h -16 z"/></g></mask><clipPath id="u"><path id="path82" d="m 0 0 h 1024 v 800 h -1024 z"/></clipPath><mask id="v"><g id="g87" filter="url(#a)"><path id="path85" fill-opacity=".4" d="m 0 0 h 16 v 16 h -16 z"/></g></mask><clipPath id="w"><path id="path90" d="m 0 0 h 1024 v 800 h -1024 z"/></clipPath><mask id="x"><g id="g95" filter="url(#a)"><path id="path93" fill-opacity=".5" d="m 0 0 h 16 v 16 h -16 z"/></g></mask><clipPath id="y"><path id="path98" d="m 0 0 h 1024 v 800 h -1024 z"/></clipPath><mask id="z"><g id="g103" filter="url(#a)"><path id="path101" fill-opacity=".5" d="m 0 0 h 16 v 16 h -16 z"/></g></mask><clipPath id="A"><path id="path106" d="m 0 0 h 1024 v 800 h -1024 z"/></clipPath><g id="g113" clip-path="url(#c)" mask="url(#b)" transform="matrix(1 0 0 1 -560 -500)"><path id="path111" fill="#2e3436" d="m 562.460938 212.058594 h 10.449218 c -1.183594 0.492187 -1.296875 2.460937 0 3 h -10.449218 z m 0 0"/></g><g id="g117" clip-path="url(#e)" mask="url(#d)" transform="matrix(1 0 0 1 -560 -500)"><path id="path115" fill="#2e3436" fill-rule="evenodd" d="m 16 632 h 1 v 1 h -1 z m 0 0"/></g><g id="g121" clip-path="url(#g)" mask="url(#f)" transform="matrix(1 0 0 1 -560 -500)"><path id="path119" fill="#2e3436" fill-rule="evenodd" d="m 17 631 h 1 v 1 h -1 z m 0 0"/></g><g id="g125" clip-path="url(#i)" mask="url(#h)" transform="matrix(1 0 0 1 -560 -500)"><path id="path123" fill="#2e3436" fill-rule="evenodd" d="m 18 634 h 1 v 1 h -1 z m 0 0"/></g><g id="g129" clip-path="url(#k)" mask="url(#j)" transform="matrix(1 0 0 1 -560 -500)"><path id="path127" fill="#2e3436" fill-rule="evenodd" d="m 16 634 h 1 v 1 h -1 z m 0 0"/></g><g id="g133" clip-path="url(#m)" mask="url(#l)" transform="matrix(1 0 0 1 -560 -500)"><path id="path131" fill="#2e3436" fill-rule="evenodd" d="m 17 635 h 1 v 1 h -1 z m 0 0"/></g><g id="g137" clip-path="url(#o)" mask="url(#n)" transform="matrix(1 0 0 1 -560 -500)"><path id="path135" fill="#2e3436" fill-rule="evenodd" d="m 19 635 h 1 v 1 h -1 z m 0 0"/></g><g id="g141" clip-path="url(#q)" mask="url(#p)" transform="matrix(1 0 0 1 -560 -500)"><path id="path139" fill="#2e3436" d="m 136 660 v 7 h 7 v -7 z m 0 0"/></g><g id="g145" clip-path="url(#s)" mask="url(#r)" transform="matrix(1 0 0 1 -560 -500)"><path id="path143" fill="#2e3436" d="m 199 642 h 3 v 12 h -3 z m 0 0"/></g><g id="g149" clip-path="url(#u)" mask="url(#t)" transform="matrix(1 0 0 1 -560 -500)"><path id="path147" fill="#2e3436" d="m 209.5 144.160156 c 0.277344 0 0.5 0.222656 0.5 0.5 v 1 c 0 0.277344 -0.222656 0.5 -0.5 0.5 s -0.5 -0.222656 -0.5 -0.5 v -1 c 0 -0.277344 0.222656 -0.5 0.5 -0.5 z m 0 0"/></g><g id="g153" clip-path="url(#w)" mask="url(#v)" transform="matrix(1 0 0 1 -560 -500)"><path id="path151" fill="#2e3436" d="m 206.5 144.160156 c 0.277344 0 0.5 0.222656 0.5 0.5 v 1 c 0 0.277344 -0.222656 0.5 -0.5 0.5 s -0.5 -0.222656 -0.5 -0.5 v -1 c 0 -0.277344 0.222656 -0.5 0.5 -0.5 z m 0 0"/></g><g id="g157" clip-path="url(#y)" mask="url(#x)" transform="matrix(1 0 0 1 -560 -500)"><path id="path155" fill="#2e3436" d="m 229.5 143.160156 c -0.546875 0 -1 0.457032 -1 1 c 0 0.546875 0.453125 1 1 1 s 1 -0.453125 1 -1 c 0 -0.542968 -0.453125 -1 -1 -1 z m 0 0"/></g><g id="g161" clip-path="url(#A)" mask="url(#z)" transform="matrix(1 0 0 1 -560 -500)"><path id="path159" fill="#2e3436" d="m 226.453125 143.160156 c -0.519531 0 -0.953125 0.433594 -0.953125 0.953125 v 0.09375 c 0 0.519531 0.433594 0.953125 0.953125 0.953125 h 0.09375 c 0.519531 0 0.953125 -0.433594 0.953125 -0.953125 v -0.09375 c 0 -0.519531 -0.433594 -0.953125 -0.953125 -0.953125 z m 0 0"/></g><path style="color:#000;fill:#2e3436;stroke-width:.832976;stroke-dasharray:2.49894,.832976;-inkscape-stroke:none" id="path1396" d="m 12.307879,3.9190041 -0.05635,-0.022667 -0.08281,-0.032089 -0.08442,-0.02926 -0.08522,-0.027845 -0.08603,-0.026431 -0.08703,-0.021383 -0.08703,-0.021384 -0.08721,-0.01775 -0.08883,-0.014921 -0.08963,-0.013506 -0.08983,-0.00987 -0.08921,-0.00766 -0.09082,-0.00482 -0.09021,-0.0026 -0.0896,-3.91e-4 -0.08898,0.00182 -0.08918,0.00546 -0.08998,0.00687 -0.08877,0.011311 -0.08877,0.011311 -0.08896,0.014944 -0.08612,0.016552 -0.08774,0.019381 -0.08712,0.0216 -0.08873,0.024427 -0.1675604,0.054482 -0.1628985,0.062745 -0.085067,0.037738 -0.08063,0.036517 -0.080823,0.040149 -0.023984,0.01257 0.3900152,0.7362175 0.013503,-0.00729 0.059861,-0.029606 0.06128,-0.028801 0.05886,-0.024559 0.127214,-0.049341 0.13046,-0.041882 0.06211,-0.017099 0.06574,-0.016906 0.06414,-0.014077 0.06555,-0.013273 0.06616,-0.011056 0.06677,-0.00883 0.06597,-0.00743 0.06658,-0.00521 0.06578,-0.00379 0.06719,-0.00299 0.067,6.46e-4 0.06619,0.00206 0.06539,0.00348 0.066,0.0057 0.06519,0.00711 0.06501,0.01074 0.06642,0.011544 0.0642,0.012154 0.06542,0.016593 0.06401,0.01579 0.06381,0.019422 0.06381,0.019421 0.0622,0.022253 0.06282,0.024469 0.04565,0.018454 z m 0.816219,0.4900179 -0.528971,0.6443839 0.03416,0.028773 0.05015,0.043469 0.04935,0.044884 0.04855,0.046297 0.04632,0.046904 0.04472,0.049735 0.04472,0.049734 0.04168,0.05176 0.04168,0.051759 0.03868,0.053786 0.03646,0.054398 0.03786,0.055201 0.03344,0.056424 0.03263,0.057838 0.03182,0.059253 0.02899,0.057642 0.0288,0.061279 0.02517,0.061082 0.02517,0.061082 0.02356,0.063912 0.02073,0.0623 0.01911,0.06513 0.01771,0.064326 0.01771,0.064328 0.01267,0.063333 0.02494,0.1339291 0.01607,0.1363756 0.0068,0.063748 0.003,0.067189 0.0016,0.066386 2.18e-4,0.022577 0.832994,-0.00381 -4.81e-4,-0.032085 -0.0019,-0.088991 -0.0054,-0.089176 -0.0075,-0.092202 -0.02201,-0.1753044 -0.03088,-0.1728632 -0.01999,-0.08995 -0.02099,-0.084905 -0.02381,-0.08651 -0.02604,-0.085903 -0.02906,-0.083877 -0.03047,-0.084679 -0.03349,-0.082653 -0.0349,-0.083457 -0.03794,-0.081435 -0.04095,-0.079405 -0.04094,-0.079405 -0.04538,-0.078186 -0.04619,-0.076772 -0.05063,-0.075553 -0.05063,-0.075553 -0.05304,-0.07131 -0.05526,-0.070699 -0.05748,-0.070091 -0.05908,-0.067258 -0.05989,-0.065843 -0.06291,-0.063817 -0.06512,-0.063205 -0.06532,-0.059574 -0.06754,-0.058961 z m -4.3518308,0.1898228 -0.00765,0.00688 -0.084748,0.086571 -0.081308,0.090397 -0.07848,0.092004 -0.074235,0.094415 -0.071406,0.096024 -0.067162,0.098436 -0.064337,0.1000411 -0.061511,0.1016459 -0.057873,0.101843 -0.055841,0.1048679 -0.052213,0.105059 -0.048584,0.10525 -0.047974,0.1074674 -0.044949,0.1054437 -0.04151,0.1092697 -0.040706,0.1078551 -0.071928,0.2154864 -0.064662,0.2158725 -0.058811,0.2154545 -0.036368,0.1496162 0.8098682,0.1982393 0.034374,-0.1395216 0.051994,-0.1968736 0.058263,-0.1914399 0.063311,-0.1904431 0.033889,-0.089273 0.035497,-0.092103 0.038329,-0.090494 0.038937,-0.088276 0.041154,-0.088888 0.043176,-0.085868 0.044597,-0.08506 0.04662,-0.08204 0.050248,-0.081848 0.050064,-0.078212 0.053692,-0.07802 0.05491,-0.073586 0.057131,-0.074196 0.058353,-0.069759 0.062597,-0.067347 0.062404,-0.063715 z m 5.4068138,3.2651797 -0.795463,-0.2499318 -0.01961,0.067446 -0.02229,0.062184 -0.02444,0.062831 -0.025,0.060644 -0.02725,0.061235 -0.0287,0.060412 -0.02934,0.058175 -0.03151,0.058816 -0.0344,0.05717 -0.03521,0.058585 -0.03721,0.055575 -0.03866,0.054752 -0.0393,0.052513 -0.03931,0.052513 -0.08854,0.1031273 -0.0942,0.099911 -0.0461,0.044909 -0.04832,0.045521 -0.04974,0.044713 -0.05257,0.043108 -0.05176,0.041692 -0.05379,0.038673 -0.05378,0.038673 -0.05662,0.037062 -0.05581,0.035647 -0.05784,0.032627 -0.05784,0.032627 -0.05986,0.029608 -0.05905,0.028193 -0.06572,0.030023 0.336198,0.7617726 0.07761,-0.03449 0.08143,-0.037932 0.0794,-0.040957 0.07879,-0.043174 0.07819,-0.045387 0.07616,-0.048411 0.07474,-0.049214 0.07272,-0.052239 0.07131,-0.053042 0.07069,-0.055259 0.06787,-0.056865 0.06726,-0.059082 0.06584,-0.05989 0.06542,-0.06574 0.121174,-0.1276222 0.113493,-0.1338587 0.05633,-0.072778 0.05327,-0.070778 0.05136,-0.073731 0.04847,-0.075378 0.04702,-0.076202 0.04565,-0.076974 0.04276,-0.07862 0.0414,-0.079392 0.03851,-0.081039 0.0357,-0.082634 0.03354,-0.081986 0.03288,-0.084229 0.03006,-0.085835 z M 8.2014817,8.0038656 7.3838304,7.8423721 l -0.016753,0.08217 -0.083351,0.4167016 -0.042092,0.2025004 -0.045726,0.2023068 -0.049166,0.1984807 -0.052605,0.1946554 -0.05685,0.1922434 -0.064725,0.189639 -0.033279,0.091493 -0.036107,0.089884 -0.036912,0.0913 -0.039741,0.08969 -0.041761,0.086668 -0.043175,0.085865 -0.02913,0.05455 0.7346613,0.393154 0.033956,-0.06305 0.052214,-0.105058 0.050791,-0.105855 0.047167,-0.106055 0.044339,-0.107662 0.04212,-0.1070521 0.040095,-0.1100734 0.072538,-0.2132678 0.065466,-0.2172868 0.058811,-0.2154547 0.05296,-0.2150374 0.047913,-0.2160338 0.044891,-0.2140089 0.083544,-0.4203346 z m -1.9055131,2.7045644 -0.034007,0.0368 -0.064619,0.06432 -0.049126,0.04694 -0.050542,0.04613 -0.052562,0.0431 -0.05337,0.04453 -0.054588,0.04008 -0.056003,0.03928 -0.057417,0.03848 -0.059444,0.03546 -0.059444,0.03546 -0.060056,0.03324 -0.062884,0.03163 -0.061279,0.0288 -0.063496,0.02942 -0.064714,0.02498 -0.064714,0.02498 -0.065325,0.02276 -0.065938,0.02054 -0.067352,0.01974 -0.067156,0.01609 -0.067156,0.01609 -0.067767,0.01389 -0.068378,0.01167 -0.068991,0.0095 -0.067379,0.0067 -0.068794,0.0058 -0.069406,0.0036 -0.068603,0.0022 -0.0678,7.68e-4 -0.067609,-0.0028 -0.026054,0.832865 0.079308,0.0021 0.091819,-2.25e-4 0.092616,-0.0017 0.092813,-0.0053 0.092202,-0.0075 0.091589,-0.0097 0.091786,-0.01334 0.091174,-0.01555 0.090562,-0.01777 0.089951,-0.01999 0.090146,-0.02362 0.087318,-0.02524 0.088924,-0.02806 0.086897,-0.03108 0.086902,-0.03109 0.085678,-0.03552 0.084259,-0.03632 0.083041,-0.04076 0.081626,-0.04156 0.081818,-0.0452 0.080404,-0.046 0.078382,-0.04903 0.07777,-0.05125 0.074941,-0.05285 0.074331,-0.05507 0.072304,-0.05809 0.071693,-0.0603 0.068864,-0.06191 0.069054,-0.06554 0.084748,-0.08657 0.044075,-0.04792 z m -3.8930081,-0.423316 -0.715549,0.426089 0.045583,0.07456 0.049023,0.07838 0.053457,0.07716 0.054266,0.07573 0.055871,0.07291 0.058088,0.07231 0.061109,0.07028 0.062719,0.06744 0.064937,0.06684 0.066547,0.06401 0.06735,0.06259 0.069568,0.06199 0.071976,0.05775 0.072779,0.05633 0.073607,0.05487 0.07656,0.05297 0.075969,0.05072 0.079031,0.04862 0.080625,0.04582 0.080035,0.04356 0.083044,0.04156 0.083868,0.04011 0.084048,0.0365 0.085644,0.0337 0.065013,0.02389 L 3.698052,11.36158 3.645123,11.34277 3.58165,11.31617 3.516761,11.28877 3.454934,11.25927 3.392516,11.22751 3.332284,11.1952 3.271462,11.16064 3.21365,11.12407 3.154422,11.0867 3.098256,11.04723 3.041499,11.00551 2.986929,10.96324 2.933954,10.91816 2.882392,10.87388 2.831023,10.82598 2.781068,10.77888 2.732719,10.72896 2.686586,10.67842 2.641257,10.62648 2.598951,10.5725 2.556646,10.51852 2.516559,10.46393 2.478082,10.40651 2.441823,10.348479 Z"/></svg>