<svg xmlns="http://www.w3.org/2000/svg" xmlns:svg="http://www.w3.org/2000/svg" id="svg2" width="16" height="16" version="1.1" viewBox="0 0 16 16" xml:space="preserve"><path style="fill:#2e3436" id="path8" d="M -3,4"/><path style="fill:#2e3436" id="path5" d="M -10,-0.5"/><path id="path1" fill-opacity=".35" d="M 3 4 C 1.335936 4 0 5.335936 0 7 L 0 13 C 0 14.664064 1.335936 16 3 16 L 9 16 C 10.664064 16 12 14.664064 12 13 L 12 9.4648438 A 4 4 0 0 1 10 10 A 4 4 0 0 1 6 6 A 4 4 0 0 1 6.5351562 4 L 3 4 z"/><path id="path2" d="m 10,2 a 4,4 0 0 0 -4,4 4,4 0 0 0 4,4 4,4 0 0 0 4,-4 4,4 0 0 0 -4,-4 z m 0.0059,2 A 1.9938145,2 0 0 1 12,6 1.9938145,2 0 0 1 10.005859,8 1.9938145,2 0 0 1 8.011719,6 1.9938145,2 0 0 1 10.005859,4 Z" style="fill:#232323;stroke-width:3;stroke-dasharray:3,3"/></svg>