<svg xmlns="http://www.w3.org/2000/svg" xmlns:svg="http://www.w3.org/2000/svg" id="svg5" width="16" height="16" version="1.1" viewBox="0 0 4.233 4.233" xml:space="preserve"><path style="color:#000;fill:#353535;fill-opacity:1;stroke-width:.657706;stroke-dasharray:3.81467,1.90732;stroke-dashoffset:1.90732;-inkscape-stroke:none" id="path940" d="m 0.79375001,0.79375003 10e-8,0.26458337 H 1.083782 l -1e-7,-0.26458337 z m 0.58006389,0 1e-7,0.26458337 h 0.5798685 l -1e-7,-0.26458337 z m 0.8699004,0 10e-8,0.26458337 h 0.5800639 l -10e-8,-0.26458337 z m 0.8699005,0 10e-8,0.26458337 h 0.3259685 l -1e-7,-0.26458337 z"/><path style="color:#000;fill:#353535;fill-opacity:1;stroke-width:.749749;stroke-dashoffset:1;-inkscape-stroke:none" id="path937" d="m 0.79375009,3.2432129 -8e-8,0.1963704 H 3.4395833 l 1e-7,-0.1963704 z"/><path id="path1337" d="M 2.087728,1.4552084 1.6867189,1.8520834 H 1.9843751 V 2.3812501 H 1.6867189 L 2.087728,2.7781251 H 2.145606 L 2.5466148,2.3812501 H 2.2489586 V 1.8520834 H 2.5466148 L 2.1456056,1.4552084 Z" style="fill:#353535;fill-opacity:1;stroke-width:.264583"/></svg>