<svg xmlns="http://www.w3.org/2000/svg" xmlns:svg="http://www.w3.org/2000/svg" id="svg163" width="16" height="16" version="1.1" viewBox="0 0 16 16" xml:space="preserve"><defs id="defs167"><filter id="mask-powermask-path-effect1726_inverse" width="100" height="100" x="-50" y="-50" style="color-interpolation-filters:sRGB"><feColorMatrix id="mask-powermask-path-effect1726_primitive1" result="fbSourceGraphic" type="saturate" values="1"/><feColorMatrix id="mask-powermask-path-effect1726_primitive2" in="fbSourceGraphic" values="-1 0 0 0 1 0 -1 0 0 1 0 0 -1 0 1 0 0 0 1 0"/></filter></defs><filter id="a" width="1" height="1" x="0" y="0"><feColorMatrix id="feColorMatrix2" in="SourceGraphic" type="matrix" values="0 0 0 0 1 0 0 0 0 1 0 0 0 0 1 0 0 0 1 0"/></filter><mask id="b"><g id="g7" filter="url(#a)"><path id="path5" fill-opacity=".3" d="m 0 0 h 16 v 16 h -16 z"/></g></mask><clipPath id="c"><path id="path10" d="m 0 0 h 1024 v 800 h -1024 z"/></clipPath><mask id="d"><g id="g15" filter="url(#a)"><path id="path13" fill-opacity=".05" d="m 0 0 h 16 v 16 h -16 z"/></g></mask><clipPath id="e"><path id="path18" d="m 0 0 h 1024 v 800 h -1024 z"/></clipPath><mask id="f"><g id="g23" filter="url(#a)"><path id="path21" fill-opacity=".05" d="m 0 0 h 16 v 16 h -16 z"/></g></mask><clipPath id="g"><path id="path26" d="m 0 0 h 1024 v 800 h -1024 z"/></clipPath><mask id="h"><g id="g31" filter="url(#a)"><path id="path29" fill-opacity=".05" d="m 0 0 h 16 v 16 h -16 z"/></g></mask><clipPath id="i"><path id="path34" d="m 0 0 h 1024 v 800 h -1024 z"/></clipPath><mask id="j"><g id="g39" filter="url(#a)"><path id="path37" fill-opacity=".05" d="m 0 0 h 16 v 16 h -16 z"/></g></mask><clipPath id="k"><path id="path42" d="m 0 0 h 1024 v 800 h -1024 z"/></clipPath><mask id="l"><g id="g47" filter="url(#a)"><path id="path45" fill-opacity=".05" d="m 0 0 h 16 v 16 h -16 z"/></g></mask><clipPath id="m"><path id="path50" d="m 0 0 h 1024 v 800 h -1024 z"/></clipPath><mask id="n"><g id="g55" filter="url(#a)"><path id="path53" fill-opacity=".05" d="m 0 0 h 16 v 16 h -16 z"/></g></mask><clipPath id="o"><path id="path58" d="m 0 0 h 1024 v 800 h -1024 z"/></clipPath><mask id="p"><g id="g63" filter="url(#a)"><path id="path61" fill-opacity=".3" d="m 0 0 h 16 v 16 h -16 z"/></g></mask><clipPath id="q"><path id="path66" d="m 0 0 h 1024 v 800 h -1024 z"/></clipPath><mask id="r"><g id="g71" filter="url(#a)"><path id="path69" fill-opacity=".5" d="m 0 0 h 16 v 16 h -16 z"/></g></mask><clipPath id="s"><path id="path74" d="m 0 0 h 1024 v 800 h -1024 z"/></clipPath><mask id="t"><g id="g79" filter="url(#a)"><path id="path77" fill-opacity=".4" d="m 0 0 h 16 v 16 h -16 z"/></g></mask><clipPath id="u"><path id="path82" d="m 0 0 h 1024 v 800 h -1024 z"/></clipPath><mask id="v"><g id="g87" filter="url(#a)"><path id="path85" fill-opacity=".4" d="m 0 0 h 16 v 16 h -16 z"/></g></mask><clipPath id="w"><path id="path90" d="m 0 0 h 1024 v 800 h -1024 z"/></clipPath><mask id="x"><g id="g95" filter="url(#a)"><path id="path93" fill-opacity=".5" d="m 0 0 h 16 v 16 h -16 z"/></g></mask><clipPath id="y"><path id="path98" d="m 0 0 h 1024 v 800 h -1024 z"/></clipPath><mask id="z"><g id="g103" filter="url(#a)"><path id="path101" fill-opacity=".5" d="m 0 0 h 16 v 16 h -16 z"/></g></mask><clipPath id="A"><path id="path106" d="m 0 0 h 1024 v 800 h -1024 z"/></clipPath><g id="g113" clip-path="url(#c)" mask="url(#b)" transform="matrix(1 0 0 1 -560 -500)"><path id="path111" fill="#2e3436" d="m 562.460938 212.058594 h 10.449218 c -1.183594 0.492187 -1.296875 2.460937 0 3 h -10.449218 z m 0 0"/></g><g id="g117" clip-path="url(#e)" mask="url(#d)" transform="matrix(1 0 0 1 -560 -500)"><path id="path115" fill="#2e3436" fill-rule="evenodd" d="m 16 632 h 1 v 1 h -1 z m 0 0"/></g><g id="g121" clip-path="url(#g)" mask="url(#f)" transform="matrix(1 0 0 1 -560 -500)"><path id="path119" fill="#2e3436" fill-rule="evenodd" d="m 17 631 h 1 v 1 h -1 z m 0 0"/></g><g id="g125" clip-path="url(#i)" mask="url(#h)" transform="matrix(1 0 0 1 -560 -500)"><path id="path123" fill="#2e3436" fill-rule="evenodd" d="m 18 634 h 1 v 1 h -1 z m 0 0"/></g><g id="g129" clip-path="url(#k)" mask="url(#j)" transform="matrix(1 0 0 1 -560 -500)"><path id="path127" fill="#2e3436" fill-rule="evenodd" d="m 16 634 h 1 v 1 h -1 z m 0 0"/></g><g id="g133" clip-path="url(#m)" mask="url(#l)" transform="matrix(1 0 0 1 -560 -500)"><path id="path131" fill="#2e3436" fill-rule="evenodd" d="m 17 635 h 1 v 1 h -1 z m 0 0"/></g><g id="g137" clip-path="url(#o)" mask="url(#n)" transform="matrix(1 0 0 1 -560 -500)"><path id="path135" fill="#2e3436" fill-rule="evenodd" d="m 19 635 h 1 v 1 h -1 z m 0 0"/></g><g id="g141" clip-path="url(#q)" mask="url(#p)" transform="matrix(1 0 0 1 -560 -500)"><path id="path139" fill="#2e3436" d="m 136 660 v 7 h 7 v -7 z m 0 0"/></g><g id="g145" clip-path="url(#s)" mask="url(#r)" transform="matrix(1 0 0 1 -560 -500)"><path id="path143" fill="#2e3436" d="m 199 642 h 3 v 12 h -3 z m 0 0"/></g><g id="g149" clip-path="url(#u)" mask="url(#t)" transform="matrix(1 0 0 1 -560 -500)"><path id="path147" fill="#2e3436" d="m 209.5 144.160156 c 0.277344 0 0.5 0.222656 0.5 0.5 v 1 c 0 0.277344 -0.222656 0.5 -0.5 0.5 s -0.5 -0.222656 -0.5 -0.5 v -1 c 0 -0.277344 0.222656 -0.5 0.5 -0.5 z m 0 0"/></g><g id="g153" clip-path="url(#w)" mask="url(#v)" transform="matrix(1 0 0 1 -560 -500)"><path id="path151" fill="#2e3436" d="m 206.5 144.160156 c 0.277344 0 0.5 0.222656 0.5 0.5 v 1 c 0 0.277344 -0.222656 0.5 -0.5 0.5 s -0.5 -0.222656 -0.5 -0.5 v -1 c 0 -0.277344 0.222656 -0.5 0.5 -0.5 z m 0 0"/></g><g id="g157" clip-path="url(#y)" mask="url(#x)" transform="matrix(1 0 0 1 -560 -500)"><path id="path155" fill="#2e3436" d="m 229.5 143.160156 c -0.546875 0 -1 0.457032 -1 1 c 0 0.546875 0.453125 1 1 1 s 1 -0.453125 1 -1 c 0 -0.542968 -0.453125 -1 -1 -1 z m 0 0"/></g><g id="g161" clip-path="url(#A)" mask="url(#z)" transform="matrix(1 0 0 1 -560 -500)"><path id="path159" fill="#2e3436" d="m 226.453125 143.160156 c -0.519531 0 -0.953125 0.433594 -0.953125 0.953125 v 0.09375 c 0 0.519531 0.433594 0.953125 0.953125 0.953125 h 0.09375 c 0.519531 0 0.953125 -0.433594 0.953125 -0.953125 v -0.09375 c 0 -0.519531 -0.433594 -0.953125 -0.953125 -0.953125 z m 0 0"/></g><path id="path20" d="m 4.4272529,4.0633451 h 0.8513025 c 0.4688813,0 0.8513025,0.3824212 0.8513025,0.8513025 V 5.76595 c 0,0.4688813 -0.3824212,0.8513025 -0.8513025,0.8513025 H 4.4272529 c -0.4688813,0 -0.8513025,-0.3824212 -0.8513025,-0.8513025 V 4.9146476 c 0,-0.4688813 0.3824212,-0.8513025 0.8513025,-0.8513025 z m 0,0" style="fill:#2e3436;fill-opacity:.327168;stroke-width:.851303"/><path id="path22" d="m 10.913214,2.1486977 h 1.702604 c 0.468882,0 0.851303,0.3824212 0.851303,0.8513024 v 1.702605 c 0,0.4688812 -0.382421,0.8513024 -0.851303,0.8513024 h -1.702604 c -0.468882,0 -0.851303,-0.3824212 -0.851303,-0.8513024 v -1.702605 c 0,-0.4688812 0.382421,-0.8513024 0.851303,-0.8513024 z m 0,0" style="fill:#2e3436;fill-opacity:.327168;stroke-width:.851303"/><path id="path34-3" fill-opacity=".327" d="m 11.764515,11.513025 h 0.851303 c 0.468882,0 0.851303,0.382422 0.851303,0.851301 v 0.851303 c 0,0.468882 -0.382421,0.851303 -0.851303,0.851303 h -0.851303 c -0.468879,0 -0.851301,-0.382421 -0.851301,-0.851303 v -0.851303 c 0,-0.468879 0.382422,-0.851301 0.851301,-0.851301 z m 0,0" style="fill:#2e3436;stroke-width:.851303"/><path style="color:#000;fill:#2e3436;stroke-dasharray:1.4,.7;-inkscape-stroke:none" id="path1330" d="m 5.9863281,8.2988281 -0.087891,0.00195 -0.035156,0.00195 0.052734,0.6992187 L 5.9335937,9 5.9863281,8.9980469 6.0390625,9 l 0.050781,0.00391 0.050781,0.00586 0.048828,0.00977 0.048828,0.011719 0.048828,0.013672 0.046875,0.015625 0.044922,0.017578 0.044922,0.019531 0.042969,0.023437 0.041016,0.023437 0.041016,0.025391 0.041016,0.029297 0.037109,0.029297 0.037109,0.03125 0.035156,0.033203 0.033203,0.035156 0.03125,0.037109 0.03125,0.039063 L 6.8125,9.4296875 7.3828125,9.0253906 7.3554687,8.984375 7.3046875,8.9199219 7.25,8.8574219 7.1933594,8.7988281 7.1347656,8.7421875 7.0722656,8.6894531 7.0078125,8.6386719 6.9414062,8.5898438 6.8730469,8.546875 6.8007812,8.5058594 6.7265625,8.4667969 6.6523437,8.4335938 6.5742187,8.4023438 6.4941406,8.375 6.4140625,8.3515625 6.3300781,8.3339844 6.2460937,8.3183594 6.1601562,8.3066406 6.0742187,8.3007813 Z m -0.9394531,0.2832032 -0.015625,0.00781 -0.066406,0.048828 -0.064453,0.050781 -0.0625,0.052734 -0.058594,0.056641 -0.056641,0.058594 -0.052734,0.0625 -0.050781,0.064453 -0.048828,0.066406 -0.042969,0.070312 -0.041016,0.070312 -0.039063,0.074219 -0.033203,0.076172 -0.03125,0.078125 -0.027344,0.078125 -0.023437,0.082031 -0.017578,0.082031 -0.015625,0.083984 -0.011719,0.085937 -0.00586,0.085937 -0.00195,0.08789 0.00195,0.07422 0.6992187,-0.01758 -0.00195,-0.05664 0.00195,-0.052734 0.00391,-0.050781 0.00586,-0.050781 L 5,9.8027344 l 0.011719,-0.048828 0.013672,-0.046875 0.015625,-0.046875 0.017578,-0.046875 0.019531,-0.042969 0.023437,-0.044922 0.023437,-0.041016 0.025391,-0.041016 0.029297,-0.039063 0.029297,-0.039063 0.03125,-0.037109 0.035156,-0.035156 0.033203,-0.033203 0.037109,-0.03125 0.039063,-0.029297 0.039063,-0.029297 z m 2.640625,1.2695312 -0.6992188,0.052734 0.00391,0.048828 0.00195,0.044922 v 0.017578 l -0.00195,0.04297 -0.00391,0.05078 -0.00586,0.05078 -0.00977,0.04883 -0.00977,0.04883 -0.013672,0.04883 -0.015625,0.04687 -0.019531,0.04492 -0.019531,0.04492 -0.021484,0.04297 -0.025391,0.04102 -0.025391,0.04101 -0.027344,0.04102 -0.03125,0.03711 -0.03125,0.03711 -0.033203,0.03516 -0.035156,0.0332 -0.037109,0.03125 -0.037109,0.03125 -0.041016,0.02734 -0.039063,0.02539 0.3496094,0.607421 0.013672,-0.0078 0.068359,-0.04492 0.066406,-0.04687 0.064453,-0.05078 0.0625,-0.05469 0.058594,-0.05664 0.056641,-0.05859 0.054687,-0.0625 0.050781,-0.06445 0.046875,-0.06641 0.044922,-0.06836 0.041016,-0.07226 0.037109,-0.07422 0.035156,-0.07422 0.029297,-0.07813 0.027344,-0.08008 0.023437,-0.08008 0.019531,-0.08399 0.013672,-0.08398 0.011719,-0.08594 0.00586,-0.08594 0.00195,-0.07813 -0.3496094,-0.0078 0.3496094,-0.00977 -0.00195,-0.080078 z m -2.5546875,0.6894535 -0.5878906,0.378906 0.025391,0.04102 0.048828,0.06641 0.050781,0.06445 0.052734,0.0625 0.056641,0.05859 0.058594,0.05664 0.0625,0.05469 0.064453,0.05078 0.066406,0.04687 0.070312,0.04492 0.070312,0.04102 0.074219,0.03711 0.076172,0.03516 0.078125,0.0293 0.078125,0.02734 0.082031,0.02344 0.082031,0.01953 0.083984,0.01367 0.085937,0.01172 0.085937,0.0059 0.087891,0.002 h 0.041016 l -0.017578,-0.699219 h -0.023437 l -0.052734,-0.002 -0.050781,-0.0039 -0.050781,-0.0059 -0.048828,-0.0098 -0.048828,-0.0098 -0.046875,-0.01367 -0.046875,-0.01563 -0.046875,-0.01953 -0.042969,-0.01953 -0.044922,-0.02149 -0.041016,-0.02539 -0.041016,-0.02539 -0.039063,-0.02734 -0.039063,-0.03125 -0.037109,-0.03125 -0.033203,-0.0332 -0.035156,-0.03516 -0.03125,-0.03711 -0.029297,-0.03711 -0.029297,-0.04102 z"/><path id="path1599" d="M 3.1992188 9 C 2.5015066 9 1.9335938 9.5698658 1.9335938 10.267578 L 1.9335938 12.800781 C 1.9335938 13.498494 2.5015066 14.066406 3.1992188 14.066406 L 5.7324219 14.066406 C 6.4301341 14.066406 6.9999999 13.498494 7 12.800781 L 7 11.730469 C 6.7047599 11.900807 6.3636737 12 6 12 C 4.8921761 12 3.9863279 11.094151 3.9863281 9.9863281 C 3.9863281 9.6281699 4.0824697 9.2921509 4.2480469 9 L 3.1992188 9 z" style="fill:#2e3436;fill-opacity:1;stroke-width:1.267;stroke-dasharray:none"/></svg>