<svg xmlns="http://www.w3.org/2000/svg" xmlns:svg="http://www.w3.org/2000/svg" id="svg163" width="16" height="16" version="1.1" viewBox="0 0 16 16" xml:space="preserve"><defs id="defs167"><linearGradient id="linearGradient4113"><stop style="stop-color:#2e3436;stop-opacity:1" id="stop4111" offset="0"/></linearGradient></defs><filter id="a" width="1" height="1" x="0" y="0"><feColorMatrix id="feColorMatrix2" in="SourceGraphic" type="matrix" values="0 0 0 0 1 0 0 0 0 1 0 0 0 0 1 0 0 0 1 0"/></filter><mask id="b"><g id="g7" filter="url(#a)"><path id="path5" fill-opacity=".3" d="m 0 0 h 16 v 16 h -16 z"/></g></mask><clipPath id="c"><path id="path10" d="m 0 0 h 1024 v 800 h -1024 z"/></clipPath><mask id="d"><g id="g15" filter="url(#a)"><path id="path13" fill-opacity=".05" d="m 0 0 h 16 v 16 h -16 z"/></g></mask><clipPath id="e"><path id="path18" d="m 0 0 h 1024 v 800 h -1024 z"/></clipPath><mask id="f"><g id="g23" filter="url(#a)"><path id="path21" fill-opacity=".05" d="m 0 0 h 16 v 16 h -16 z"/></g></mask><clipPath id="g"><path id="path26" d="m 0 0 h 1024 v 800 h -1024 z"/></clipPath><mask id="h"><g id="g31" filter="url(#a)"><path id="path29" fill-opacity=".05" d="m 0 0 h 16 v 16 h -16 z"/></g></mask><clipPath id="i"><path id="path34" d="m 0 0 h 1024 v 800 h -1024 z"/></clipPath><mask id="j"><g id="g39" filter="url(#a)"><path id="path37" fill-opacity=".05" d="m 0 0 h 16 v 16 h -16 z"/></g></mask><clipPath id="k"><path id="path42" d="m 0 0 h 1024 v 800 h -1024 z"/></clipPath><mask id="l"><g id="g47" filter="url(#a)"><path id="path45" fill-opacity=".05" d="m 0 0 h 16 v 16 h -16 z"/></g></mask><clipPath id="m"><path id="path50" d="m 0 0 h 1024 v 800 h -1024 z"/></clipPath><mask id="n"><g id="g55" filter="url(#a)"><path id="path53" fill-opacity=".05" d="m 0 0 h 16 v 16 h -16 z"/></g></mask><clipPath id="o"><path id="path58" d="m 0 0 h 1024 v 800 h -1024 z"/></clipPath><mask id="p"><g id="g63" filter="url(#a)"><path id="path61" fill-opacity=".3" d="m 0 0 h 16 v 16 h -16 z"/></g></mask><clipPath id="q"><path id="path66" d="m 0 0 h 1024 v 800 h -1024 z"/></clipPath><mask id="r"><g id="g71" filter="url(#a)"><path id="path69" fill-opacity=".5" d="m 0 0 h 16 v 16 h -16 z"/></g></mask><clipPath id="s"><path id="path74" d="m 0 0 h 1024 v 800 h -1024 z"/></clipPath><mask id="t"><g id="g79" filter="url(#a)"><path id="path77" fill-opacity=".4" d="m 0 0 h 16 v 16 h -16 z"/></g></mask><clipPath id="u"><path id="path82" d="m 0 0 h 1024 v 800 h -1024 z"/></clipPath><mask id="v"><g id="g87" filter="url(#a)"><path id="path85" fill-opacity=".4" d="m 0 0 h 16 v 16 h -16 z"/></g></mask><clipPath id="w"><path id="path90" d="m 0 0 h 1024 v 800 h -1024 z"/></clipPath><mask id="x"><g id="g95" filter="url(#a)"><path id="path93" fill-opacity=".5" d="m 0 0 h 16 v 16 h -16 z"/></g></mask><clipPath id="y"><path id="path98" d="m 0 0 h 1024 v 800 h -1024 z"/></clipPath><mask id="z"><g id="g103" filter="url(#a)"><path id="path101" fill-opacity=".5" d="m 0 0 h 16 v 16 h -16 z"/></g></mask><clipPath id="A"><path id="path106" d="m 0 0 h 1024 v 800 h -1024 z"/></clipPath><g id="g113" clip-path="url(#c)" mask="url(#b)" transform="matrix(1 0 0 1 -560 -500)"><path id="path111" fill="#2e3436" d="m 562.460938 212.058594 h 10.449218 c -1.183594 0.492187 -1.296875 2.460937 0 3 h -10.449218 z m 0 0"/></g><g id="g117" clip-path="url(#e)" mask="url(#d)" transform="matrix(1 0 0 1 -560 -500)"><path id="path115" fill="#2e3436" fill-rule="evenodd" d="m 16 632 h 1 v 1 h -1 z m 0 0"/></g><g id="g121" clip-path="url(#g)" mask="url(#f)" transform="matrix(1 0 0 1 -560 -500)"><path id="path119" fill="#2e3436" fill-rule="evenodd" d="m 17 631 h 1 v 1 h -1 z m 0 0"/></g><g id="g125" clip-path="url(#i)" mask="url(#h)" transform="matrix(1 0 0 1 -560 -500)"><path id="path123" fill="#2e3436" fill-rule="evenodd" d="m 18 634 h 1 v 1 h -1 z m 0 0"/></g><g id="g129" clip-path="url(#k)" mask="url(#j)" transform="matrix(1 0 0 1 -560 -500)"><path id="path127" fill="#2e3436" fill-rule="evenodd" d="m 16 634 h 1 v 1 h -1 z m 0 0"/></g><g id="g133" clip-path="url(#m)" mask="url(#l)" transform="matrix(1 0 0 1 -560 -500)"><path id="path131" fill="#2e3436" fill-rule="evenodd" d="m 17 635 h 1 v 1 h -1 z m 0 0"/></g><g id="g137" clip-path="url(#o)" mask="url(#n)" transform="matrix(1 0 0 1 -560 -500)"><path id="path135" fill="#2e3436" fill-rule="evenodd" d="m 19 635 h 1 v 1 h -1 z m 0 0"/></g><g id="g141" clip-path="url(#q)" mask="url(#p)" transform="matrix(1 0 0 1 -560 -500)"><path id="path139" fill="#2e3436" d="m 136 660 v 7 h 7 v -7 z m 0 0"/></g><g id="g145" clip-path="url(#s)" mask="url(#r)" transform="matrix(1 0 0 1 -560 -500)"><path id="path143" fill="#2e3436" d="m 199 642 h 3 v 12 h -3 z m 0 0"/></g><g id="g149" clip-path="url(#u)" mask="url(#t)" transform="matrix(1 0 0 1 -560 -500)"><path id="path147" fill="#2e3436" d="m 209.5 144.160156 c 0.277344 0 0.5 0.222656 0.5 0.5 v 1 c 0 0.277344 -0.222656 0.5 -0.5 0.5 s -0.5 -0.222656 -0.5 -0.5 v -1 c 0 -0.277344 0.222656 -0.5 0.5 -0.5 z m 0 0"/></g><g id="g153" clip-path="url(#w)" mask="url(#v)" transform="matrix(1 0 0 1 -560 -500)"><path id="path151" fill="#2e3436" d="m 206.5 144.160156 c 0.277344 0 0.5 0.222656 0.5 0.5 v 1 c 0 0.277344 -0.222656 0.5 -0.5 0.5 s -0.5 -0.222656 -0.5 -0.5 v -1 c 0 -0.277344 0.222656 -0.5 0.5 -0.5 z m 0 0"/></g><g id="g157" clip-path="url(#y)" mask="url(#x)" transform="matrix(1 0 0 1 -560 -500)"><path id="path155" fill="#2e3436" d="m 229.5 143.160156 c -0.546875 0 -1 0.457032 -1 1 c 0 0.546875 0.453125 1 1 1 s 1 -0.453125 1 -1 c 0 -0.542968 -0.453125 -1 -1 -1 z m 0 0"/></g><g id="g161" clip-path="url(#A)" mask="url(#z)" transform="matrix(1 0 0 1 -560 -500)"><path id="path159" fill="#2e3436" d="m 226.453125 143.160156 c -0.519531 0 -0.953125 0.433594 -0.953125 0.953125 v 0.09375 c 0 0.519531 0.433594 0.953125 0.953125 0.953125 h 0.09375 c 0.519531 0 0.953125 -0.433594 0.953125 -0.953125 v -0.09375 c 0 -0.519531 -0.433594 -0.953125 -0.953125 -0.953125 z m 0 0"/></g><path id="path1045" d="M 11.490234,2.4472656 11.5,3.2480469 h 0.06641 l 0.126953,0.00391 0.134766,0.011719 0.138672,0.017578 0.148437,0.027344 0.08789,0.019531 0.171875,-0.78125 -0.103516,-0.023437 -0.18164,-0.03125 -0.175782,-0.023437 -0.169921,-0.015625 -0.167969,-0.00586 z m -0.919922,0.1757813 -0.04492,0.017578 -0.13086,0.060547 -0.126953,0.068359 -0.121094,0.074219 -0.115234,0.082031 -0.109375,0.089844 -0.1035156,0.09375 -0.048828,0.048828 0.5683596,0.5625 0.0332,-0.033203 0.07031,-0.064453 0.07422,-0.058594 0.07422,-0.054687 0.08008,-0.048828 0.08203,-0.042969 0.08399,-0.041016 0.02148,-0.00781 z m 2.621094,0.171875 -0.277344,0.75 0.03906,0.015625 0.1875,0.076172 0.197266,0.085937 0.203125,0.09375 0.06641,0.033203 0.355469,-0.7167969 -0.07617,-0.037109 -0.220703,-0.1035156 -0.214844,-0.09375 -0.208984,-0.083984 z M 9.2382812,3.890625 9.2285156,3.90625 9.1621094,4.0371094 9.0996094,4.1699219 9.0410156,4.3066406 8.984375,4.4472656 8.9335938,4.5898438 8.8984375,4.6933594 9.65625,4.9492188 9.6875,4.8554688 9.7324219,4.7324219 9.7792969,4.6132812 9.8300781,4.4980469 9.8808594,4.3886719 9.9355469,4.2832031 9.9375,4.2792969 Z M 8.6738281,5.5097656 8.609375,5.8203125 8.5488281,6.1464844 8.5214844,6.3144531 9.3125,6.4414062 9.337891,6.2832031 9.394532,5.9746094 9.457032,5.6738281 Z m -6.2167969,5.0078124 -0.5175781,0.609375 0.2539063,0.214844 0.25,0.207031 0.1171875,0.0957 0.5039062,-0.623047 -0.1152343,-0.0918 -0.2421876,-0.199219 z m 1.2246094,0.984375 -0.4746094,0.644531 0.1679688,0.123047 0.2167969,0.154297 0.2128906,0.144531 0.076172,0.04883 0.4375,-0.669922 -0.070312,-0.04492 L 4.0488281,11.767578 3.84375,11.621094 Z m 3.9980469,0.25 -0.039063,0.09961 -0.042969,0.09961 -0.044922,0.0957 -0.046875,0.08789 -0.048828,0.08398 -0.048828,0.07813 -0.054687,0.07617 0.6523438,0.462891 0.064453,-0.0918 0.070312,-0.109375 0.066406,-0.113282 0.060547,-0.11914 0.058594,-0.121094 0.054687,-0.125 0.042969,-0.109375 z m -2.6992187,0.595703 -0.390625,0.697266 0.00586,0.0039 0.1835938,0.0957 0.1816406,0.08789 0.1738281,0.08008 0.171875,0.07031 0.066406,0.02344 0.2753906,-0.751953 -0.052734,-0.01758 -0.1445312,-0.06055 -0.1523438,-0.06836 -0.1582031,-0.07617 z m 1.921875,0.396485 -0.00781,0.0039 -0.068359,0.02539 -0.070312,0.01953 -0.076172,0.01563 -0.080078,0.01172 -0.085937,0.0059 H 6.421875 l -0.097656,-0.0059 0.00781,0.002 -0.09375,0.794922 0.015625,0.002 0.1445313,0.0078 h 0.1445313 l 0.1386718,-0.0098 0.1367188,-0.01953 0.1308594,-0.02734 0.1289062,-0.03711 0.1230469,-0.04687 0.035156,-0.01563 z" style="color:#000;fill:#2e3436;stroke-dasharray:.8,.8"/><g id="g751" transform="translate(-26.25,-8.5)"><path style="color:#000;fill:#2e3436;stroke-width:1;-inkscape-stroke:none" id="rect5646-6" d="M 32.75,15.5 V 15.658727 20 h 4.5 v -4.5 z m 0.307045,0.317453 h 3.887904 v 3.865095 h -3.887904 z"/><path id="path6823-6" d="m 35.383254,16.278913 c -0.04573,0.003 -0.09053,0.02991 -0.135326,0.07526 l -2.0523,2.083273 L 33.750001,19 h 1.343001 l 1.389667,-1.41072 c 0.0784,-0.07912 0.07279,-0.197811 0.0018,-0.269214 l -0.954754,-0.969751 c -0.05227,-0.05211 -0.09987,-0.0743 -0.146527,-0.0714 z m -0.946354,1.390457 0.66077,0.63492 c 0.0504,0.03087 0.04759,0.14281 0.0084,0.184301 l -0.237989,0.260529 h -1.015416 l -0.305186,-0.310705 0.732631,-0.760361 c 0.0448,-0.04632 0.119461,-0.04728 0.156792,-0.0086 z m 0,0" style="fill:#2e3436;stroke-width:.234048"/></g></svg>