<svg xmlns="http://www.w3.org/2000/svg" xmlns:svg="http://www.w3.org/2000/svg" id="svg14" width="32" height="32" version="1.1" viewBox="0 0 32 32"><g id="g12" fill="#2e3436" transform="translate(8,8)" style="stroke-width:.999997"><path id="path2" d="m 1,3 h 14 c 0.550781,0 1,0.449219 1,1 0,0.550781 -0.449219,1 -1,1 H 1 C 0.449219,5 0,4.550781 0,4 0,3.449219 0.449219,3 1,3 Z m 0,0" style="stroke-width:.999997"/><path id="path4" d="M 4,4 V 2.5 C 4,1.113281 5.113281,0 6.5,0 h 2.980469 c 1.382812,0 2.5,1.113281 2.5,2.5 V 4 h -2 V 2.5 C 9.980469,2.230469 9.75,2 9.480469,2 H 6.5 C 6.230469,2 6,2.230469 6,2.5 V 4 Z m 0,0" style="stroke-width:.999997"/><path id="path6" d="m 4,4 v 9 c 0,0.546875 0.453125,1 1,1 h 6 c 0.546875,0 1,-0.453125 1,-1 V 4 h 2 v 9 c 0,1.660156 -1.339844,3 -3,3 H 5 C 3.339844,16 2,14.660156 2,13 V 4 Z m 0,0" style="stroke-width:.999997"/><path id="path8" d="m 7,7 v 5 C 7,12.277344 6.777344,12.5 6.5,12.5 6.222656,12.5 6,12.277344 6,12 V 7 C 6,6.722656 6.222656,6.5 6.5,6.5 6.777344,6.5 7,6.722656 7,7 Z m 0,0" style="stroke-width:.999997"/><path id="path10" d="m 10,7 v 5 C 10,12.277344 9.777344,12.5 9.5,12.5 9.222656,12.5 9,12.277344 9,12 V 7 C 9,6.722656 9.222656,6.5 9.5,6.5 9.777344,6.5 10,6.722656 10,7 Z m 0,0" style="stroke-width:.999997"/></g></svg>