<svg xmlns="http://www.w3.org/2000/svg" xmlns:svg="http://www.w3.org/2000/svg" id="svg163" width="16" height="16" version="1.1" viewBox="0 0 16 16" xml:space="preserve"><defs id="defs167"><clipPath id="clipPath2873" clipPathUnits="userSpaceOnUse"><circle style="display:none;fill:none;stroke:#444;stroke-width:.0430271;stroke-dasharray:none;stroke-opacity:1" id="circle2875" cx=".529" cy="3.44" r=".114" d="M 0.64300952,3.4395833 A 0.11384288,0.11384288 0 0 1 0.52916664,3.5534262 0.11384288,0.11384288 0 0 1 0.41532376,3.4395833 0.11384288,0.11384288 0 0 1 0.52916664,3.3257404 0.11384288,0.11384288 0 0 1 0.64300952,3.4395833 Z"/><path id="lpe_path-effect2877" d="M -4.4708333,-3.9659488 H 6.7812597 V 8.4895833 H -4.4708333 Z M 1.4367595,1.0583333 A 0.11384288,0.11384288 0 0 0 1.3229166,0.9444904 0.11384288,0.11384288 0 0 0 1.2090737,1.0583333 0.11384288,0.11384288 0 0 0 1.3229166,1.1721762 0.11384288,0.11384288 0 0 0 1.4367595,1.0583333 Z" class="powerclip" style="fill:none;stroke:#444;stroke-width:.0430271;stroke-dasharray:none;stroke-opacity:1"/></clipPath><clipPath id="clipPath2945" clipPathUnits="userSpaceOnUse"/><clipPath id="clipPath2989" clipPathUnits="userSpaceOnUse"><path id="lpe_path-effect2993" d="M -4.4707031,-3.9667969 H 6.7813388 V 8.4902344 H -4.4707031 Z M 0.64300952,3.4395833 A 0.11384288,0.11384288 0 0 0 0.52916664,3.3257404 0.11384288,0.11384288 0 0 0 0.41532376,3.4395833 0.11384288,0.11384288 0 0 0 0.52916664,3.5534262 0.11384288,0.11384288 0 0 0 0.64300952,3.4395833 Z" class="powerclip" style="fill:none;stroke:#444;stroke-width:.0430271;stroke-dasharray:none;stroke-opacity:1"/></clipPath><clipPath id="clipPath3029" clipPathUnits="userSpaceOnUse"><path id="lpe_path-effect3033" d="M -4.4707031,-3.9667969 H 6.7813388 V 8.4902344 H -4.4707031 Z M 1.4367595,1.0583333 A 0.11384288,0.11384288 0 0 0 1.3229166,0.9444904 0.11384288,0.11384288 0 0 0 1.2090737,1.0583333 0.11384288,0.11384288 0 0 0 1.3229166,1.1721762 0.11384288,0.11384288 0 0 0 1.4367595,1.0583333 Z" class="powerclip" style="fill:none;stroke:#444;stroke-width:.0430271;stroke-dasharray:none;stroke-opacity:1"/></clipPath><clipPath id="clipPath3176-6" clipPathUnits="userSpaceOnUse"><path id="lpe_path-effect3180-2" d="M -4.4707031,-3.9667969 H 6.7813388 V 8.4902344 H -4.4707031 Z m 5.11384286,7.40625 A 0.11384288,0.11384288 0 0 0 0.52929687,3.3256102 0.11384288,0.11384288 0 0 0 0.41545399,3.4394531 0.11384288,0.11384288 0 0 0 0.52929687,3.553296 0.11384288,0.11384288 0 0 0 0.64313976,3.4394531 Z" class="powerclip" style="fill:none;stroke:#444;stroke-width:.0430271;stroke-dasharray:none;stroke-opacity:1"/></clipPath></defs><filter id="a" width="1" height="1" x="0" y="0"><feColorMatrix id="feColorMatrix2" in="SourceGraphic" type="matrix" values="0 0 0 0 1 0 0 0 0 1 0 0 0 0 1 0 0 0 1 0"/></filter><mask id="b"><g id="g7" filter="url(#a)"><path id="path5" fill-opacity=".3" d="m 0 0 h 16 v 16 h -16 z"/></g></mask><clipPath id="c"><path id="path10" d="m 0 0 h 1024 v 800 h -1024 z"/></clipPath><mask id="d"><g id="g15" filter="url(#a)"><path id="path13" fill-opacity=".05" d="m 0 0 h 16 v 16 h -16 z"/></g></mask><clipPath id="e"><path id="path18" d="m 0 0 h 1024 v 800 h -1024 z"/></clipPath><mask id="f"><g id="g23" filter="url(#a)"><path id="path21" fill-opacity=".05" d="m 0 0 h 16 v 16 h -16 z"/></g></mask><clipPath id="g"><path id="path26" d="m 0 0 h 1024 v 800 h -1024 z"/></clipPath><mask id="h"><g id="g31" filter="url(#a)"><path id="path29" fill-opacity=".05" d="m 0 0 h 16 v 16 h -16 z"/></g></mask><clipPath id="i"><path id="path34" d="m 0 0 h 1024 v 800 h -1024 z"/></clipPath><mask id="j"><g id="g39" filter="url(#a)"><path id="path37" fill-opacity=".05" d="m 0 0 h 16 v 16 h -16 z"/></g></mask><clipPath id="k"><path id="path42" d="m 0 0 h 1024 v 800 h -1024 z"/></clipPath><mask id="l"><g id="g47" filter="url(#a)"><path id="path45" fill-opacity=".05" d="m 0 0 h 16 v 16 h -16 z"/></g></mask><clipPath id="m"><path id="path50" d="m 0 0 h 1024 v 800 h -1024 z"/></clipPath><mask id="n"><g id="g55" filter="url(#a)"><path id="path53" fill-opacity=".05" d="m 0 0 h 16 v 16 h -16 z"/></g></mask><clipPath id="o"><path id="path58" d="m 0 0 h 1024 v 800 h -1024 z"/></clipPath><mask id="p"><g id="g63" filter="url(#a)"><path id="path61" fill-opacity=".3" d="m 0 0 h 16 v 16 h -16 z"/></g></mask><clipPath id="q"><path id="path66" d="m 0 0 h 1024 v 800 h -1024 z"/></clipPath><mask id="r"><g id="g71" filter="url(#a)"><path id="path69" fill-opacity=".5" d="m 0 0 h 16 v 16 h -16 z"/></g></mask><clipPath id="s"><path id="path74" d="m 0 0 h 1024 v 800 h -1024 z"/></clipPath><mask id="t"><g id="g79" filter="url(#a)"><path id="path77" fill-opacity=".4" d="m 0 0 h 16 v 16 h -16 z"/></g></mask><clipPath id="u"><path id="path82" d="m 0 0 h 1024 v 800 h -1024 z"/></clipPath><mask id="v"><g id="g87" filter="url(#a)"><path id="path85" fill-opacity=".4" d="m 0 0 h 16 v 16 h -16 z"/></g></mask><clipPath id="w"><path id="path90" d="m 0 0 h 1024 v 800 h -1024 z"/></clipPath><mask id="x"><g id="g95" filter="url(#a)"><path id="path93" fill-opacity=".5" d="m 0 0 h 16 v 16 h -16 z"/></g></mask><clipPath id="y"><path id="path98" d="m 0 0 h 1024 v 800 h -1024 z"/></clipPath><mask id="z"><g id="g103" filter="url(#a)"><path id="path101" fill-opacity=".5" d="m 0 0 h 16 v 16 h -16 z"/></g></mask><clipPath id="A"><path id="path106" d="m 0 0 h 1024 v 800 h -1024 z"/></clipPath><g id="g113" clip-path="url(#c)" mask="url(#b)" transform="matrix(1 0 0 1 -560 -500)"><path id="path111" fill="#2e3436" d="m 562.460938 212.058594 h 10.449218 c -1.183594 0.492187 -1.296875 2.460937 0 3 h -10.449218 z m 0 0"/></g><g id="g117" clip-path="url(#e)" mask="url(#d)" transform="matrix(1 0 0 1 -560 -500)"><path id="path115" fill="#2e3436" fill-rule="evenodd" d="m 16 632 h 1 v 1 h -1 z m 0 0"/></g><g id="g121" clip-path="url(#g)" mask="url(#f)" transform="matrix(1 0 0 1 -560 -500)"><path id="path119" fill="#2e3436" fill-rule="evenodd" d="m 17 631 h 1 v 1 h -1 z m 0 0"/></g><g id="g125" clip-path="url(#i)" mask="url(#h)" transform="matrix(1 0 0 1 -560 -500)"><path id="path123" fill="#2e3436" fill-rule="evenodd" d="m 18 634 h 1 v 1 h -1 z m 0 0"/></g><g id="g129" clip-path="url(#k)" mask="url(#j)" transform="matrix(1 0 0 1 -560 -500)"><path id="path127" fill="#2e3436" fill-rule="evenodd" d="m 16 634 h 1 v 1 h -1 z m 0 0"/></g><g id="g133" clip-path="url(#m)" mask="url(#l)" transform="matrix(1 0 0 1 -560 -500)"><path id="path131" fill="#2e3436" fill-rule="evenodd" d="m 17 635 h 1 v 1 h -1 z m 0 0"/></g><g id="g137" clip-path="url(#o)" mask="url(#n)" transform="matrix(1 0 0 1 -560 -500)"><path id="path135" fill="#2e3436" fill-rule="evenodd" d="m 19 635 h 1 v 1 h -1 z m 0 0"/></g><g id="g141" clip-path="url(#q)" mask="url(#p)" transform="matrix(1 0 0 1 -560 -500)"><path id="path139" fill="#2e3436" d="m 136 660 v 7 h 7 v -7 z m 0 0"/></g><g id="g145" clip-path="url(#s)" mask="url(#r)" transform="matrix(1 0 0 1 -560 -500)"><path id="path143" fill="#2e3436" d="m 199 642 h 3 v 12 h -3 z m 0 0"/></g><g id="g149" clip-path="url(#u)" mask="url(#t)" transform="matrix(1 0 0 1 -560 -500)"><path id="path147" fill="#2e3436" d="m 209.5 144.160156 c 0.277344 0 0.5 0.222656 0.5 0.5 v 1 c 0 0.277344 -0.222656 0.5 -0.5 0.5 s -0.5 -0.222656 -0.5 -0.5 v -1 c 0 -0.277344 0.222656 -0.5 0.5 -0.5 z m 0 0"/></g><g id="g153" clip-path="url(#w)" mask="url(#v)" transform="matrix(1 0 0 1 -560 -500)"><path id="path151" fill="#2e3436" d="m 206.5 144.160156 c 0.277344 0 0.5 0.222656 0.5 0.5 v 1 c 0 0.277344 -0.222656 0.5 -0.5 0.5 s -0.5 -0.222656 -0.5 -0.5 v -1 c 0 -0.277344 0.222656 -0.5 0.5 -0.5 z m 0 0"/></g><g id="g157" clip-path="url(#y)" mask="url(#x)" transform="matrix(1 0 0 1 -560 -500)"><path id="path155" fill="#2e3436" d="m 229.5 143.160156 c -0.546875 0 -1 0.457032 -1 1 c 0 0.546875 0.453125 1 1 1 s 1 -0.453125 1 -1 c 0 -0.542968 -0.453125 -1 -1 -1 z m 0 0"/></g><g id="g161" clip-path="url(#A)" mask="url(#z)" transform="matrix(1 0 0 1 -560 -500)"><path id="path159" fill="#2e3436" d="m 226.453125 143.160156 c -0.519531 0 -0.953125 0.433594 -0.953125 0.953125 v 0.09375 c 0 0.519531 0.433594 0.953125 0.953125 0.953125 h 0.09375 c 0.519531 0 0.953125 -0.433594 0.953125 -0.953125 v -0.09375 c 0 -0.519531 -0.433594 -0.953125 -0.953125 -0.953125 z m 0 0"/></g><path id="rect1823" d="M 3.0664062 3 C 3.1298741 3.1129556 3.1660156 3.242789 3.1660156 3.3808594 C 3.1660156 3.4942272 3.141535 3.6018701 3.0976562 3.6992188 L 7.5 3.6992188 L 7.5 6.1230469 C 7.5965078 6.0800844 7.702606 6.0546875 7.8144531 6.0546875 C 7.954177 6.0546875 8.0855944 6.0930496 8.1992188 6.1582031 L 8.1992188 3 L 3.0664062 3 z M 2 4.0566406 L 2 7.1992188 L 7.125 7.1992188 C 7.0672167 7.0906537 7.0332031 6.9669264 7.0332031 6.8359375 C 7.0332031 6.7158643 7.0622264 6.6019819 7.1113281 6.5 L 2.6992188 6.5 L 2.6992188 4.0957031 C 2.6035108 4.1378312 2.497667 4.1601562 2.3867188 4.1601562 C 2.2462006 4.1601562 2.1143367 4.1222129 2 4.0566406 z" style="color:#000;fill:#323232;-inkscape-stroke:none"/><path id="rect1823-7" d="M 2.3496094 6.6503906 L 2.3496094 7.0507812 L 3.9492188 7.0507812 L 3.9492188 6.6503906 L 2.3496094 6.6503906 z M 4.3496094 6.6503906 L 4.3496094 7.0507812 L 5.9492188 7.0507812 L 5.9492188 6.6503906 L 4.3496094 6.6503906 z M 6.3496094 6.6503906 L 6.3496094 7.0507812 L 7.0625 7.0507812 C 7.04071 6.9793565 7.0273438 6.9025542 7.0273438 6.8242188 C 7.0273438 6.764209 7.035811 6.7066342 7.0488281 6.6503906 L 6.3496094 6.6503906 z M 2.1503906 7.25 L 2.1503906 8.8496094 L 2.5507812 8.8496094 L 2.5507812 7.25 L 2.1503906 7.25 z M 8.0507812 7.5664062 C 7.9747059 7.5913222 7.8927965 7.6054688 7.8085938 7.6054688 C 7.7542755 7.6054688 7.7016817 7.5985618 7.6503906 7.5878906 L 7.6503906 8.9492188 L 8.0507812 8.9492188 L 8.0507812 7.5664062 z M 2.1503906 9.25 L 2.1503906 10.550781 L 2.8496094 10.550781 L 2.8496094 10.150391 L 2.5507812 10.150391 L 2.5507812 9.25 L 2.1503906 9.25 z M 7.6503906 9.3496094 L 7.6503906 10.150391 L 7.25 10.150391 L 7.25 10.550781 L 8.0507812 10.550781 L 8.0507812 9.3496094 L 7.6503906 9.3496094 z M 3.25 10.150391 L 3.25 10.550781 L 4.8496094 10.550781 L 4.8496094 10.150391 L 3.25 10.150391 z M 5.25 10.150391 L 5.25 10.550781 L 6.8496094 10.550781 L 6.8496094 10.150391 L 5.25 10.150391 z" style="color:#000;fill:#323232;stroke-dasharray:1.6,.4;-inkscape-stroke:none"/><path style="color:#000;fill:#323232;stroke-dasharray:1.6,.4;-inkscape-stroke:none" id="rect1823-7-5" d="m 2.3496094,10.150391 v 0.40039 h 1.5996094 v -0.40039 z m 2,0 v 0.40039 h 1.5996093 v -0.40039 z m 2,0 v 0.40039 h 1.5 L 7.75,10.449219 H 8.0507813 V 10.150391 Z M 2.1503906,10.75 v 1.599609 H 2.5507813 V 10.75 Z m 5.5,0.09961 v 1.59961 h 0.4003907 v -1.59961 z m -5.5,1.900391 v 1.300781 h 0.6992188 v -0.40039 H 2.5507813 V 12.75 Z m 5.5,0.09961 v 0.800782 H 7.25 v 0.40039 H 8.0507813 V 12.849609 Z M 3.25,13.650391 v 0.40039 h 1.5996094 v -0.40039 z m 2,0 v 0.40039 h 1.5996094 v -0.40039 z"/><path id="rect1823-3" d="M 7.8496094 3.1503906 L 7.8496094 3.5507812 L 9.4492188 3.5507812 L 9.4492188 3.1503906 L 7.8496094 3.1503906 z M 9.8496094 3.1503906 L 9.8496094 3.5507812 L 11.449219 3.5507812 L 11.449219 3.1503906 L 9.8496094 3.1503906 z M 11.849609 3.1503906 L 11.849609 3.5507812 L 13.349609 3.5507812 L 13.25 3.4492188 L 13.550781 3.4492188 L 13.550781 3.1503906 L 11.849609 3.1503906 z M 7.6503906 3.75 L 7.6503906 5.3496094 L 8.0507812 5.3496094 L 8.0507812 3.75 L 7.6503906 3.75 z M 13.150391 3.8496094 L 13.150391 5.4492188 L 13.550781 5.4492188 L 13.550781 3.8496094 L 13.150391 3.8496094 z M 7.6503906 5.75 L 7.6503906 6.0742188 C 7.7041696 6.0623746 7.7592423 6.0546875 7.8164062 6.0546875 C 7.8975404 6.0546875 7.9771237 6.0684862 8.0507812 6.0917969 L 8.0507812 5.75 L 7.6503906 5.75 z M 13.150391 5.8496094 L 13.150391 6.6503906 L 12.75 6.6503906 L 12.75 7.0507812 L 13.550781 7.0507812 L 13.550781 5.8496094 L 13.150391 5.8496094 z M 8.75 6.6503906 L 8.75 7.0507812 L 10.349609 7.0507812 L 10.349609 6.6503906 L 8.75 6.6503906 z M 10.75 6.6503906 L 10.75 7.0507812 L 12.349609 7.0507812 L 12.349609 6.6503906 L 10.75 6.6503906 z" style="color:#000;fill:#323232;stroke-dasharray:1.6,.4;-inkscape-stroke:none"/><path id="rect1823-7-56" d="M 8.5742188 6.6503906 C 8.5883921 6.7090752 8.5976562 6.7691758 8.5976562 6.8320312 C 8.5976562 6.9075267 8.5866059 6.981649 8.5664062 7.0507812 L 9.4492188 7.0507812 L 9.4492188 6.6503906 L 8.5742188 6.6503906 z M 9.8496094 6.6503906 L 9.8496094 7.0507812 L 11.449219 7.0507812 L 11.449219 6.6503906 L 9.8496094 6.6503906 z M 11.849609 6.6503906 L 11.849609 7.0507812 L 13.349609 7.0507812 L 13.25 6.9492188 L 13.550781 6.9492188 L 13.550781 6.6503906 L 11.849609 6.6503906 z M 13.150391 7.3496094 L 13.150391 8.9492188 L 13.550781 8.9492188 L 13.550781 7.3496094 L 13.150391 7.3496094 z M 8.0488281 7.578125 C 7.9757031 7.6009603 7.8968698 7.6113281 7.8164062 7.6113281 C 7.7592423 7.6113281 7.7041696 7.6055366 7.6503906 7.59375 L 7.6503906 8.8496094 L 8.0507812 8.8496094 L 8.0507812 7.578125 C 8.0501937 7.57831 8.0494163 7.5779413 8.0488281 7.578125 z M 7.6503906 9.25 L 7.6503906 10.550781 L 8.3496094 10.550781 L 8.3496094 10.150391 L 8.0507812 10.150391 L 8.0507812 9.25 L 7.6503906 9.25 z M 13.150391 9.3496094 L 13.150391 10.150391 L 12.75 10.150391 L 12.75 10.550781 L 13.550781 10.550781 L 13.550781 9.3496094 L 13.150391 9.3496094 z M 8.75 10.150391 L 8.75 10.550781 L 10.349609 10.550781 L 10.349609 10.150391 L 8.75 10.150391 z M 10.75 10.150391 L 10.75 10.550781 L 12.349609 10.550781 L 12.349609 10.150391 L 10.75 10.150391 z" style="color:#000;fill:#323232;stroke-dasharray:1.6,.4;-inkscape-stroke:none"/><path id="rect1823-7-5-2" d="M 7.8496094 10.150391 L 7.8496094 10.550781 L 9.4492188 10.550781 L 9.4492188 10.150391 L 7.8496094 10.150391 z M 9.8496094 10.150391 L 9.8496094 10.550781 L 11.449219 10.550781 L 11.449219 10.150391 L 9.8496094 10.150391 z M 11.849609 10.150391 L 11.849609 10.550781 L 13.349609 10.550781 L 13.25 10.449219 L 13.550781 10.449219 L 13.550781 10.150391 L 11.849609 10.150391 z M 7.6503906 10.75 L 7.6503906 12.349609 L 8.0507812 12.349609 L 8.0507812 10.75 L 7.6503906 10.75 z M 13.150391 10.849609 L 13.150391 12.449219 L 13.550781 12.449219 L 13.550781 10.849609 L 13.150391 10.849609 z M 7.6503906 12.75 L 7.6503906 14.050781 L 8.3496094 14.050781 L 8.3496094 13.650391 L 8.0507812 13.650391 L 8.0507812 12.75 L 7.6503906 12.75 z M 13.150391 12.849609 L 13.150391 13.042969 C 13.210226 13.028127 13.27173 13.021484 13.335938 13.021484 C 13.410017 13.021484 13.482802 13.031214 13.550781 13.050781 L 13.550781 12.849609 L 13.150391 12.849609 z M 8.75 13.650391 L 8.75 14.050781 L 10.349609 14.050781 L 10.349609 13.650391 L 8.75 13.650391 z M 10.75 13.650391 L 10.75 14.050781 L 12.349609 14.050781 L 12.349609 13.650391 L 10.75 13.650391 z" style="color:#000;fill:#323232;stroke-dasharray:1.6,.4;-inkscape-stroke:none"/><path style="color:#000;fill:#323232;-inkscape-stroke:none" id="path4474-0-9" d="m 13.330078,12.945313 c -0.448475,-1e-6 -0.814453,0.365977 -0.814453,0.814453 0,0.448475 0.365978,0.816406 0.814453,0.816406 0.448475,0 0.816406,-0.367931 0.816406,-0.816406 0,-0.448475 -0.367931,-0.814453 -0.816406,-0.814453 z m 0,0.298828 c 0.286343,0 0.515625,0.229281 0.515625,0.515625 0,0.286343 -0.229282,0.515625 -0.515625,0.515625 -0.286344,0 -0.515625,-0.229282 -0.515625,-0.515625 0,-0.286344 0.229281,-0.515626 0.515625,-0.515625 z"/><path style="color:#000;fill:#323232;-inkscape-stroke:none" id="path4474-0-9-0" d="m 7.8222656,6.0253906 c -0.4484753,1e-7 -0.8144531,0.3659778 -0.8144531,0.8144531 0,0.4484754 0.3659778,0.8164063 0.8144531,0.8164063 0.4484754,0 0.8164063,-0.3679309 0.8164063,-0.8164063 -1e-7,-0.4484753 -0.3679309,-0.8144531 -0.8164063,-0.8144531 z m 0,0.3007813 c 0.2863435,-1e-7 0.515625,0.2273284 0.515625,0.5136718 1e-7,0.2863436 -0.2292815,0.5156251 -0.515625,0.515625 -0.2863434,0 -0.515625,-0.2292815 -0.515625,-0.515625 0,-0.2863434 0.2292816,-0.5136718 0.515625,-0.5136718 z"/><path style="color:#000;fill:#323232;-inkscape-stroke:none" id="path4474-0-9-1" d="m 2.3964844,2.6386719 c -0.4484754,-10e-8 -0.8144531,0.3659777 -0.8144532,0.8144531 10e-8,0.4484754 0.3659778,0.8144532 0.8144532,0.8144531 0.4484753,0 0.8164062,-0.3659778 0.8164062,-0.8144531 0,-0.4484753 -0.3679309,-0.8144531 -0.8164062,-0.8144531 z m 0,0.2988281 c 0.2863434,0 0.515625,0.2292816 0.515625,0.515625 0,0.2863434 -0.2292816,0.515625 -0.515625,0.515625 -0.2863435,0 -0.5136719,-0.2292815 -0.5136719,-0.515625 0,-0.2863435 0.2273284,-0.515625 0.5136719,-0.515625 z"/></svg>