<svg xmlns="http://www.w3.org/2000/svg" xmlns:svg="http://www.w3.org/2000/svg" id="svg169" width="16" height="16" version="1.1" viewBox="0 0 16 16" xml:space="preserve"><filter id="a" width="1" height="1" x="0" y="0"><feColorMatrix id="feColorMatrix2" in="SourceGraphic" type="matrix" values="0 0 0 0 1 0 0 0 0 1 0 0 0 0 1 0 0 0 1 0"/></filter><mask id="b"><g id="g7" filter="url(#a)"><path id="path5" fill-opacity=".3" d="m 0 0 h 16 v 16 h -16 z"/></g></mask><clipPath id="c"><path id="path10" d="m 0 0 h 1024 v 800 h -1024 z"/></clipPath><mask id="d"><g id="g15" filter="url(#a)"><path id="path13" fill-opacity=".05" d="m 0 0 h 16 v 16 h -16 z"/></g></mask><clipPath id="e"><path id="path18" d="m 0 0 h 1024 v 800 h -1024 z"/></clipPath><mask id="f"><g id="g23" filter="url(#a)"><path id="path21" fill-opacity=".05" d="m 0 0 h 16 v 16 h -16 z"/></g></mask><clipPath id="g"><path id="path26" d="m 0 0 h 1024 v 800 h -1024 z"/></clipPath><mask id="h"><g id="g31" filter="url(#a)"><path id="path29" fill-opacity=".05" d="m 0 0 h 16 v 16 h -16 z"/></g></mask><clipPath id="i"><path id="path34" d="m 0 0 h 1024 v 800 h -1024 z"/></clipPath><mask id="j"><g id="g39" filter="url(#a)"><path id="path37" fill-opacity=".05" d="m 0 0 h 16 v 16 h -16 z"/></g></mask><clipPath id="k"><path id="path42" d="m 0 0 h 1024 v 800 h -1024 z"/></clipPath><mask id="l"><g id="g47" filter="url(#a)"><path id="path45" fill-opacity=".05" d="m 0 0 h 16 v 16 h -16 z"/></g></mask><clipPath id="m"><path id="path50" d="m 0 0 h 1024 v 800 h -1024 z"/></clipPath><mask id="n"><g id="g55" filter="url(#a)"><path id="path53" fill-opacity=".05" d="m 0 0 h 16 v 16 h -16 z"/></g></mask><clipPath id="o"><path id="path58" d="m 0 0 h 1024 v 800 h -1024 z"/></clipPath><mask id="p"><g id="g63" filter="url(#a)"><path id="path61" fill-opacity=".3" d="m 0 0 h 16 v 16 h -16 z"/></g></mask><clipPath id="q"><path id="path66" d="m 0 0 h 1024 v 800 h -1024 z"/></clipPath><mask id="r"><g id="g71" filter="url(#a)"><path id="path69" fill-opacity=".5" d="m 0 0 h 16 v 16 h -16 z"/></g></mask><clipPath id="s"><path id="path74" d="m 0 0 h 1024 v 800 h -1024 z"/></clipPath><mask id="t"><g id="g79" filter="url(#a)"><path id="path77" fill-opacity=".4" d="m 0 0 h 16 v 16 h -16 z"/></g></mask><clipPath id="u"><path id="path82" d="m 0 0 h 1024 v 800 h -1024 z"/></clipPath><mask id="v"><g id="g87" filter="url(#a)"><path id="path85" fill-opacity=".4" d="m 0 0 h 16 v 16 h -16 z"/></g></mask><clipPath id="w"><path id="path90" d="m 0 0 h 1024 v 800 h -1024 z"/></clipPath><mask id="x"><g id="g95" filter="url(#a)"><path id="path93" fill-opacity=".5" d="m 0 0 h 16 v 16 h -16 z"/></g></mask><clipPath id="y"><path id="path98" d="m 0 0 h 1024 v 800 h -1024 z"/></clipPath><mask id="z"><g id="g103" filter="url(#a)"><path id="path101" fill-opacity=".5" d="m 0 0 h 16 v 16 h -16 z"/></g></mask><clipPath id="A"><path id="path106" d="m 0 0 h 1024 v 800 h -1024 z"/></clipPath><g id="g111" clip-path="url(#c)" mask="url(#b)" transform="matrix(1 0 0 1 -156 -620)"><path id="path109" fill="#2e3436" d="m 562.460938 212.058594 h 10.449218 c -1.183594 0.492187 -1.296875 2.460937 0 3 h -10.449218 z m 0 0"/></g><g id="g115" clip-path="url(#e)" mask="url(#d)" transform="matrix(1 0 0 1 -156 -620)"><path id="path113" fill="#2e3436" fill-rule="evenodd" d="m 16 632 h 1 v 1 h -1 z m 0 0"/></g><g id="g119" clip-path="url(#g)" mask="url(#f)" transform="matrix(1 0 0 1 -156 -620)"><path id="path117" fill="#2e3436" fill-rule="evenodd" d="m 17 631 h 1 v 1 h -1 z m 0 0"/></g><g id="g123" clip-path="url(#i)" mask="url(#h)" transform="matrix(1 0 0 1 -156 -620)"><path id="path121" fill="#2e3436" fill-rule="evenodd" d="m 18 634 h 1 v 1 h -1 z m 0 0"/></g><g id="g127" clip-path="url(#k)" mask="url(#j)" transform="matrix(1 0 0 1 -156 -620)"><path id="path125" fill="#2e3436" fill-rule="evenodd" d="m 16 634 h 1 v 1 h -1 z m 0 0"/></g><g id="g131" clip-path="url(#m)" mask="url(#l)" transform="matrix(1 0 0 1 -156 -620)"><path id="path129" fill="#2e3436" fill-rule="evenodd" d="m 17 635 h 1 v 1 h -1 z m 0 0"/></g><g id="g135" clip-path="url(#o)" mask="url(#n)" transform="matrix(1 0 0 1 -156 -620)"><path id="path133" fill="#2e3436" fill-rule="evenodd" d="m 19 635 h 1 v 1 h -1 z m 0 0"/></g><g id="g147" clip-path="url(#q)" mask="url(#p)" transform="matrix(1 0 0 1 -156 -620)"><path id="path145" fill="#2e3436" d="m 136 660 v 7 h 7 v -7 z m 0 0"/></g><g id="g151" clip-path="url(#s)" mask="url(#r)" transform="matrix(1 0 0 1 -156 -620)"><path id="path149" fill="#2e3436" d="m 199 642 h 3 v 12 h -3 z m 0 0"/></g><g id="g155" clip-path="url(#u)" mask="url(#t)" transform="matrix(1 0 0 1 -156 -620)"><path id="path153" fill="#2e3436" d="m 209.5 144.160156 c 0.277344 0 0.5 0.222656 0.5 0.5 v 1 c 0 0.277344 -0.222656 0.5 -0.5 0.5 s -0.5 -0.222656 -0.5 -0.5 v -1 c 0 -0.277344 0.222656 -0.5 0.5 -0.5 z m 0 0"/></g><g id="g159" clip-path="url(#w)" mask="url(#v)" transform="matrix(1 0 0 1 -156 -620)"><path id="path157" fill="#2e3436" d="m 206.5 144.160156 c 0.277344 0 0.5 0.222656 0.5 0.5 v 1 c 0 0.277344 -0.222656 0.5 -0.5 0.5 s -0.5 -0.222656 -0.5 -0.5 v -1 c 0 -0.277344 0.222656 -0.5 0.5 -0.5 z m 0 0"/></g><g id="g163" clip-path="url(#y)" mask="url(#x)" transform="matrix(1 0 0 1 -156 -620)"><path id="path161" fill="#2e3436" d="m 229.5 143.160156 c -0.546875 0 -1 0.457032 -1 1 c 0 0.546875 0.453125 1 1 1 s 1 -0.453125 1 -1 c 0 -0.542968 -0.453125 -1 -1 -1 z m 0 0"/></g><g id="g167" clip-path="url(#A)" mask="url(#z)" transform="matrix(1 0 0 1 -156 -620)"><path id="path165" fill="#2e3436" d="m 226.453125 143.160156 c -0.519531 0 -0.953125 0.433594 -0.953125 0.953125 v 0.09375 c 0 0.519531 0.433594 0.953125 0.953125 0.953125 h 0.09375 c 0.519531 0 0.953125 -0.433594 0.953125 -0.953125 v -0.09375 c 0 -0.519531 -0.433594 -0.953125 -0.953125 -0.953125 z m 0 0"/></g><g style="fill:#2e3436;fill-opacity:1;stroke-width:1.33619" id="g418" transform="matrix(0.74589922,-0.06112952,0.06112952,0.74589922,5.2878217,0.75904235)"><path id="path409" d="M 12.34,0 C 10.64,-0.01 8.76,2.2 8.75,4.56 L 7.35,3.5 6.65,4.43 8.22,5.62 5,9.95 4,12 4.7,12.56 6.4,11.07 9.64,6.7 11.3,7.96 12,7.03 10.6,5.97 C 13.4,5.18 15.32,1.8 13.46,0.39 13.12,0.12 12.73,0 12.34,0 Z M 4,12.57 c 0,0 -1.46,0.66 -1.45,2.06 0.02,1.73 2.63,1.82 2.71,0.27 C 5.3,14.03 4,12.57 4,12.57 Z" style="fill:#2e3436;fill-opacity:1;stroke-width:1.33619"/></g><path style="color:#000;fill:#2e3436;stroke-linecap:round;stroke-linejoin:bevel;-inkscape-stroke:none" id="path495" d="M 2,4.25 A 0.75,0.75 0 0 0 1.25,5 0.75,0.75 0 0 0 2,5.75 c 0.2499998,0 1.5489416,0.2316043 2.5703125,0.6855469 C 5.0809979,6.6625182 5.5441226,6.9446233 5.8398437,7.2285156 6.1355649,7.5124079 6.25,7.7500003 6.25,8 c 0,0.09375 -0.00873,0.1015715 -0.046875,0.1484375 C 6.1649783,8.1953035 6.0705738,8.2730551 5.9023437,8.3515625 5.5658836,8.5085772 4.978515,8.638672 4.3535156,8.7636719 3.7285163,8.8886718 3.0658827,9.0085777 2.4648438,9.2890625 2.1643243,9.4293049 1.868103,9.6171788 1.6328125,9.90625 1.397522,10.195321 1.25,10.59375 1.25,11 c 0,0.749999 0.3855657,1.387409 0.8710938,1.853516 0.485528,0.466107 1.0849053,0.809003 1.6992187,1.082031 C 5.0489394,14.481603 6.2500008,14.75 7,14.75 A 0.75,0.75 0 0 0 7.75,14 0.75,0.75 0 0 0 7,13.25 C 6.7500002,13.25 5.4510584,13.018396 4.4296875,12.564453 3.9190021,12.337482 3.4558774,12.055377 3.1601563,11.771484 2.8644351,11.487592 2.75,11.25 2.75,11 c 0,-0.09375 0.00873,-0.101572 0.046875,-0.148437 0.038147,-0.04687 0.1325512,-0.124618 0.3007813,-0.203125 0.3364601,-0.157015 0.9238287,-0.28711 1.5488281,-0.41211 0.6249993,-0.125 1.2876329,-0.2449057 1.8886718,-0.5253905 C 6.8356757,9.5706951 7.131897,9.3828212 7.3671875,9.09375 7.602478,8.8046788 7.75,8.4062496 7.75,8 7.75,7.2500007 7.3644343,6.6125913 6.8789062,6.1464844 6.3933782,5.6803774 5.7940009,5.3374813 5.1796875,5.0644531 3.9510606,4.5183967 2.7499992,4.25 2,4.25 Z"/></svg>